<?xml version="1.0" standalone="no"?>
<!DOCTYPE svg PUBLIC "-//W3C//DTD SVG 20010904//EN"
 "http://www.w3.org/TR/2001/REC-SVG-20010904/DTD/svg10.dtd">
<svg version="1.0" xmlns="http://www.w3.org/2000/svg"
 width="1015.000000pt" height="1015.000000pt" viewBox="0 0 1015.000000 1015.000000"
 preserveAspectRatio="xMidYMid meet">
<metadata>
Created by potrace 1.14, written by Peter Selinger 2001-2017
</metadata>
<g transform="translate(0.000000,1015.000000) scale(0.100000,-0.100000)"
fill="#000000" stroke="none">
<path d="M30 5080 l0 -4820 1495 0 1495 0 0 1355 0 1355 1221 -2 1221 -3 720
-1352 721 -1353 1603 0 c882 0 1604 2 1604 4 0 3 -361 697 -801 1543 -441 846
-816 1568 -835 1605 l-33 66 97 65 c301 200 610 507 839 832 297 421 497 923
582 1455 40 249 46 338 46 680 -1 349 -12 504 -56 765 -139 835 -497 1486
-1074 1950 -119 96 -353 247 -500 321 -302 154 -618 259 -987 326 l-123 23
-3617 3 -3618 2 0 -4820z m6175 2163 c230 -81 385 -212 480 -406 100 -205 105
-459 12 -669 -78 -175 -237 -329 -416 -402 -144 -58 -74 -56 -1736 -56 l-1525
0 0 780 0 780 1563 -2 1562 -3 60 -22z"/>
</g>
</svg>
